<?xml version="1.0" encoding="UTF-8"?>
<svg width="899px" height="802px" viewBox="0 0 899 802" version="1.1" xmlns="http://www.w3.org/2000/svg" xmlns:xlink="http://www.w3.org/1999/xlink">
    <!-- Generator: Sketch 45.1 (43504) - http://www.bohemiancoding.com/sketch -->
    <title>Activcore Mark</title>
    <desc>Created with Sketch.</desc>
    <defs></defs>
    <g id="Elements" stroke="none" stroke-width="1" fill="none" fill-rule="evenodd">
        <g id="Activcore-Mark" transform="translate(0.000000, -7.000000)" fill="#FF2211">
            <path d="M431.819328,445.110577 L298.986783,445.110577 C207.735383,445.110577 122.714155,494.271346 77.0884547,573.409904 L10.6877386,688.585673 C-11.3239783,726.756923 1.74304797,775.590577 39.8707639,797.631923 C77.9984798,819.673269 126.75871,806.588654 148.770427,768.409615 L215.171143,653.233846 C232.407173,623.333942 264.522502,604.76625 298.986783,604.76625 L431.819328,604.76625 C475.842761,604.76625 511.535966,569.017212 511.535966,524.934519 C511.535966,480.859615 475.842761,445.110577 431.819328,445.110577" id="Fill-17"></path>
            <path d="M887.765986,688.583337 L518.264706,47.7253558 C496.25299,9.54631731 447.516093,-3.56166346 409.372821,18.5108365 C371.245105,40.5521827 358.178079,89.3624712 380.197574,127.549298 L749.698853,768.407279 C771.71057,806.57074 820.447467,819.694298 858.590739,797.621798 C896.718454,775.580452 909.785481,726.762375 887.765986,688.583337" id="Fill-20"></path>
        </g>
    </g>
</svg>