<?xml version="1.0" encoding="UTF-8"?>
<svg width="84px" height="84px" viewBox="0 0 84 84" version="1.1" xmlns="http://www.w3.org/2000/svg" xmlns:xlink="http://www.w3.org/1999/xlink">
    <!-- Generator: Sketch 45.1 (43504) - http://www.bohemiancoding.com/sketch -->
    <title>facebook</title>
    <desc>Created with Sketch.</desc>
    <defs></defs>
    <g id="Elements" stroke="none" stroke-width="1" fill="none" fill-rule="evenodd">
        <g id="facebook" transform="translate(0.000000, -2.000000)">
            <path d="M83.5127794,43.8886467 C83.5127794,20.811161 64.817171,2.09756098 41.7563897,2.09756098 C18.6956084,2.09756098 0,20.811161 0,43.8886467 C0,66.9710467 18.6956084,85.6797324 41.7563897,85.6797324 C64.817171,85.6797324 83.5127794,66.9710467 83.5127794,43.8886467 Z" id="Fill-1" fill="#6E6E73"></path>
            <path d="M31.6826116,36.4005431 L35.9986824,36.4005431 L35.9986824,32.2012859 C35.9986824,30.3510574 36.0453294,27.4934002 37.3907258,25.7267145 C38.804865,23.8543717 40.7493065,22.5791145 44.0907015,22.5791145 C49.5361197,22.5791145 51.8316409,23.3580288 51.8316409,23.3580288 L50.7513956,29.7588859 C50.7513956,29.7588859 48.9518052,29.2379717 47.2749699,29.2379717 C45.5956796,29.2379717 44.0907015,29.8399717 44.0907015,31.5206574 L44.0907015,36.4005431 L50.97481,36.4005431 L50.4960649,42.6515145 L44.0907015,42.6515145 L44.0907015,64.3726574 L35.9986824,64.3726574 L35.9986824,42.6515145 L31.6826116,42.6515145 L31.6826116,36.4005431 Z" id="Fill-4" fill="#000000"></path>
        </g>
    </g>
</svg>