<?xml version="1.0" encoding="UTF-8"?>
<svg width="84px" height="85px" viewBox="0 0 84 85" version="1.1" xmlns="http://www.w3.org/2000/svg" xmlns:xlink="http://www.w3.org/1999/xlink">
    <!-- Generator: Sketch 45.1 (43504) - http://www.bohemiancoding.com/sketch -->
    <title>google plus</title>
    <desc>Created with Sketch.</desc>
    <defs></defs>
    <g id="Elements" stroke="none" stroke-width="1" fill="none" fill-rule="evenodd">
        <g id="google-plus" transform="translate(0.000000, -1.000000)">
            <path d="M83.5147435,43.4763774 C83.5147435,20.3964345 64.8215902,1.68529165 41.7583538,1.68529165 C18.6975725,1.68529165 -0.000491020575,20.3964345 -0.000491020575,43.4763774 C-0.000491020575,66.5563202 18.6975725,85.2674631 41.7583538,85.2674631 C64.8215902,85.2674631 83.5147435,66.5563202 83.5147435,43.4763774 Z" id="Fill-1" fill="#6E6E73"></path>
            <path d="M61.8774308,40.4233774 L56.8420148,40.4233774 L56.8420148,35.3862345 L52.7910951,35.3862345 L52.7910951,40.4233774 L47.7581342,40.4233774 L47.7581342,44.4776631 L52.7910951,44.4776631 L52.7910951,49.5172631 L56.8420148,49.5172631 L56.8420148,44.4776631 L61.8774308,44.4776631 L61.8774308,40.4233774 Z M43.0615224,46.5269202 C41.8928934,45.6988631 39.6587498,43.6864631 39.6587498,42.5021202 C39.6587498,41.1113774 40.0540214,40.4307488 42.1408588,38.7992059 C44.2792534,37.1258917 45.7940519,34.7744059 45.7940519,32.0396059 C45.7940519,28.7838917 44.3430861,25.6117202 41.6252872,24.5625202 L45.725309,24.5625202 L48.6198753,22.4714917 L35.6863934,22.4714917 C29.8898955,22.4714917 24.4346569,26.8673202 24.4346569,31.9585202 C24.4346569,37.1602917 28.3849174,41.3620059 34.2845296,41.3620059 C34.6945318,41.3620059 35.0922585,41.3521774 35.4826198,41.3251488 C35.0996238,42.0573774 34.8246522,42.8854345 34.8246522,43.7405202 C34.8246522,45.1877774 35.6029199,46.3622917 36.584961,47.3181202 C35.8435199,47.3181202 35.1241748,47.3402345 34.3459072,47.3402345 C27.1622762,47.3402345 21.6358396,51.9154345 21.6358396,56.6626345 C21.6358396,61.3385774 27.6950335,64.2625774 34.8737543,64.2625774 C43.0615224,64.2625774 47.5838219,59.6136631 47.5838219,54.9377202 C47.5838219,51.1881202 46.4790256,48.9447488 43.0615224,46.5269202 L43.0615224,46.5269202 Z M36.1528629,40.0425202 C32.8237434,39.9417774 29.6542056,36.3125774 29.0821666,31.9339488 C28.5052174,27.5553202 30.7418162,24.2037774 34.0709357,24.3020631 C37.4025103,24.4028059 40.569593,27.9140631 41.144087,32.2926917 C41.7185811,36.6737774 39.4844375,40.1432631 36.1528629,40.0425202 L36.1528629,40.0425202 Z M34.8492033,62.1936631 C29.8849853,62.1936631 26.3005351,59.0509774 26.3005351,55.2718917 C26.3005351,51.5714345 30.7467264,48.4877202 35.7109444,48.5417774 C36.8697529,48.5565202 37.9499982,48.7408059 38.9295842,49.0577774 C41.6228321,50.9350345 43.5549981,51.9916059 44.1000309,54.1317774 C44.2031452,54.5642345 44.2596126,55.0089774 44.2596126,55.4660059 C44.2596126,59.2450917 41.8290607,62.1936631 34.8492033,62.1936631 L34.8492033,62.1936631 Z" id="Fill-4" fill="#000000"></path>
        </g>
    </g>
</svg>