<?xml version="1.0" encoding="UTF-8"?>
<svg width="84px" height="84px" viewBox="0 0 84 84" version="1.1" xmlns="http://www.w3.org/2000/svg" xmlns:xlink="http://www.w3.org/1999/xlink">
    <!-- Generator: Sketch 45.1 (43504) - http://www.bohemiancoding.com/sketch -->
    <title>linkedin</title>
    <desc>Created with Sketch.</desc>
    <defs></defs>
    <g id="Elements" stroke="none" stroke-width="1" fill="none" fill-rule="evenodd">
        <g id="linkedin">
            <path d="M83.5127794,41.83968 C83.5127794,18.7329 64.8220812,0 41.7563897,0 C18.6931533,0 0,18.7329 0,41.83968 C0,64.94646 18.6931533,83.67936 41.7563897,83.67936 C64.8220812,83.67936 83.5127794,64.94646 83.5127794,41.83968 Z" id="Fill-1" fill="#6E6E73"></path>
            <path d="M63.8523156,58.09782 L54.6235839,58.09782 L54.6235839,44.59242 C54.6235839,41.0574 53.1799834,38.64414 50.0055354,38.64414 C47.5774386,38.64414 46.227132,40.27266 45.5986257,41.84214 C45.3629358,42.40548 45.3997624,43.18776 45.3997624,43.97496 L45.3997624,58.09782 L36.2569593,58.09782 C36.2569593,58.09782 36.3748042,34.17432 36.2569593,31.99968 L45.3997624,31.99968 L45.3997624,36.09558 C45.939885,34.3047 48.8614574,31.74876 53.5236978,31.74876 C59.3079202,31.74876 63.8523156,35.50272 63.8523156,43.58628 L63.8523156,58.09782 Z M27.0110418,28.7328 L26.9521194,28.7328 C24.0059959,28.7328 22.0959259,26.73774 22.0959259,24.21132 C22.0959259,21.63324 24.0624633,19.68 27.0675092,19.68 C30.0701,19.68 31.9163374,21.62832 31.9752598,24.20394 C31.9752598,26.73282 30.0701,28.7328 27.0110418,28.7328 L27.0110418,28.7328 Z M23.149165,58.09782 L31.287831,58.09782 L31.287831,31.99968 L23.149165,31.99968 L23.149165,58.09782 Z" id="Fill-4" fill="#000000"></path>
        </g>
    </g>
</svg>