<?xml version="1.0" encoding="UTF-8"?>
<svg width="1140px" height="53px" viewBox="0 0 1140 53" version="1.1" xmlns="http://www.w3.org/2000/svg" xmlns:xlink="http://www.w3.org/1999/xlink">
    <!-- Generator: Sketch 45.1 (43504) - http://www.bohemiancoding.com/sketch -->
    <title>tagline red+white</title>
    <desc>Created with Sketch.</desc>
    <defs></defs>
    <g id="Elements" stroke="none" stroke-width="1" fill="none" fill-rule="evenodd">
        <g id="tagline-red+white">
            <path d="M241.253333,15.464 C240.314662,14.2693274 239.088008,13.3200035 237.573333,12.616 C236.058659,11.9119965 234.59734,11.56 233.189333,11.56 C232.463996,11.56 231.728004,11.6239994 230.981333,11.752 C230.234663,11.8800006 229.56267,12.1253315 228.965333,12.488 C228.367997,12.8506685 227.866669,13.3199971 227.461333,13.896 C227.055998,14.4720029 226.853333,15.2079955 226.853333,16.104 C226.853333,16.8720038 227.013332,17.5119974 227.333333,18.024 C227.653335,18.5360026 228.122664,18.9839981 228.741333,19.368 C229.360003,19.7520019 230.095996,20.1039984 230.949333,20.424 C231.802671,20.7440016 232.762661,21.074665 233.829333,21.416 C235.365341,21.9280026 236.965325,22.4933302 238.629333,23.112 C240.293342,23.7306698 241.807993,24.5519949 243.173333,25.576 C244.538674,26.6000051 245.669329,27.8693258 246.565333,29.384 C247.461338,30.8986742 247.909333,32.7866554 247.909333,35.048 C247.909333,37.6506797 247.429338,39.9013238 246.469333,41.8 C245.509329,43.6986762 244.218675,45.2666605 242.597333,46.504 C240.975992,47.7413395 239.120011,48.6586637 237.029333,49.256 C234.938656,49.8533363 232.784011,50.152 230.565333,50.152 C227.322651,50.152 224.186682,49.5866723 221.157333,48.456 C218.127985,47.3253277 215.610677,45.7146771 213.605333,43.624 L220.773333,36.328 C221.882672,37.6933402 223.343991,38.8346621 225.157333,39.752 C226.970676,40.6693379 228.773324,41.128 230.565333,41.128 C231.376004,41.128 232.16533,41.0426675 232.933333,40.872 C233.701337,40.7013325 234.373331,40.4240019 234.949333,40.04 C235.525336,39.6559981 235.983998,39.1440032 236.325333,38.504 C236.666668,37.8639968 236.837333,37.0960045 236.837333,36.2 C236.837333,35.3466624 236.624002,34.6213363 236.197333,34.024 C235.770665,33.4266637 235.162671,32.8826691 234.373333,32.392 C233.583996,31.9013309 232.602673,31.4533354 231.429333,31.048 C230.255994,30.6426646 228.922674,30.2053357 227.429333,29.736 C225.97866,29.2666643 224.560007,28.7120032 223.173333,28.072 C221.78666,27.4319968 220.549339,26.6106717 219.461333,25.608 C218.373328,24.6053283 217.49867,23.3893405 216.837333,21.96 C216.175997,20.5306595 215.845333,18.7920102 215.845333,16.744 C215.845333,14.2266541 216.357328,12.072009 217.381333,10.28 C218.405339,8.48799104 219.749325,7.01600576 221.413333,5.864 C223.077342,4.71199424 224.954656,3.869336 227.045333,3.336 C229.136011,2.802664 231.247989,2.536 233.381333,2.536 C235.941346,2.536 238.554653,3.00532864 241.221333,3.944 C243.888013,4.88267136 246.22399,6.26932416 248.229333,8.104 L241.253333,15.464 Z M286.528,49 L283.008,40.104 L265.472,40.104 L262.144,49 L250.24,49 L269.248,3.688 L279.872,3.688 L298.688,49 L286.528,49 Z M274.368,15.784 L268.608,31.336 L280,31.336 L274.368,15.784 Z M313.946667,13.032 L313.946667,22.376 L331.482667,22.376 L331.482667,31.4 L313.946667,31.4 L313.946667,49 L303.130667,49 L303.130667,3.688 L332.954667,3.688 L332.954667,13.032 L313.946667,13.032 Z M340.661333,49 L340.661333,3.688 L371.125333,3.688 L371.125333,12.968 L351.221333,12.968 L351.221333,21.48 L370.037333,21.48 L370.037333,30.248 L351.221333,30.248 L351.221333,39.656 L372.277333,39.656 L372.277333,49 L340.661333,49 Z M404.432,49 L394.64,31.016 L390.928,31.016 L390.928,49 L380.176,49 L380.176,3.688 L397.456,3.688 C399.632011,3.688 401.754656,3.91199776 403.824,4.36 C405.893344,4.80800224 407.749325,5.565328 409.392,6.632 C411.034675,7.698672 412.346662,9.10665792 413.328,10.856 C414.309338,12.6053421 414.8,14.7813203 414.8,17.384 C414.8,20.4560154 413.968008,23.0373229 412.304,25.128 C410.639992,27.2186771 408.336015,28.7119955 405.392,29.608 L417.232,49 L404.432,49 Z M403.984,17.576 C403.984,16.509328 403.760002,15.6453366 403.312,14.984 C402.863998,14.3226634 402.288004,13.8106685 401.584,13.448 C400.879997,13.0853315 400.090671,12.8400006 399.216,12.712 C398.341329,12.5839994 397.498671,12.52 396.688,12.52 L390.864,12.52 L390.864,23.08 L396.048,23.08 C396.944005,23.08 397.861329,23.0053341 398.8,22.856 C399.738672,22.7066659 400.591996,22.4400019 401.36,22.056 C402.128004,21.6719981 402.757331,21.117337 403.248,20.392 C403.738669,19.666663 403.984,18.7280058 403.984,17.576 Z M474.437334,15.464 C473.498662,14.2693274 472.272008,13.3200035 470.757334,12.616 C469.242659,11.9119965 467.781341,11.56 466.373334,11.56 C465.647997,11.56 464.912004,11.6239994 464.165334,11.752 C463.418663,11.8800006 462.74667,12.1253315 462.149334,12.488 C461.551997,12.8506685 461.050669,13.3199971 460.645334,13.896 C460.239998,14.4720029 460.037334,15.2079955 460.037334,16.104 C460.037334,16.8720038 460.197332,17.5119974 460.517334,18.024 C460.837335,18.5360026 461.306664,18.9839981 461.925334,19.368 C462.544003,19.7520019 463.279996,20.1039984 464.133334,20.424 C464.986671,20.7440016 465.946662,21.074665 467.013334,21.416 C468.549341,21.9280026 470.149325,22.4933302 471.813334,23.112 C473.477342,23.7306698 474.991993,24.5519949 476.357334,25.576 C477.722674,26.6000051 478.853329,27.8693258 479.749334,29.384 C480.645338,30.8986742 481.093334,32.7866554 481.093334,35.048 C481.093334,37.6506797 480.613338,39.9013238 479.653334,41.8 C478.693329,43.6986762 477.402675,45.2666605 475.781334,46.504 C474.159992,47.7413395 472.304011,48.6586637 470.213334,49.256 C468.122656,49.8533363 465.968011,50.152 463.749334,50.152 C460.506651,50.152 457.370682,49.5866723 454.341334,48.456 C451.311985,47.3253277 448.794677,45.7146771 446.789334,43.624 L453.957334,36.328 C455.066672,37.6933402 456.527991,38.8346621 458.341334,39.752 C460.154676,40.6693379 461.957325,41.128 463.749334,41.128 C464.560004,41.128 465.34933,41.0426675 466.117334,40.872 C466.885337,40.7013325 467.557331,40.4240019 468.133334,40.04 C468.709336,39.6559981 469.167999,39.1440032 469.509334,38.504 C469.850669,37.8639968 470.021334,37.0960045 470.021334,36.2 C470.021334,35.3466624 469.808002,34.6213363 469.381334,34.024 C468.954665,33.4266637 468.346671,32.8826691 467.557334,32.392 C466.767996,31.9013309 465.786673,31.4533354 464.613334,31.048 C463.439994,30.6426646 462.106674,30.2053357 460.613334,29.736 C459.16266,29.2666643 457.744007,28.7120032 456.357334,28.072 C454.97066,27.4319968 453.733339,26.6106717 452.645334,25.608 C451.557328,24.6053283 450.68267,23.3893405 450.021334,21.96 C449.359997,20.5306595 449.029334,18.7920102 449.029334,16.744 C449.029334,14.2266541 449.541328,12.072009 450.565334,10.28 C451.589339,8.48799104 452.933325,7.01600576 454.597334,5.864 C456.261342,4.71199424 458.138656,3.869336 460.229334,3.336 C462.320011,2.802664 464.43199,2.536 466.565334,2.536 C469.125346,2.536 471.738654,3.00532864 474.405334,3.944 C477.072014,4.88267136 479.40799,6.26932416 481.413334,8.104 L474.437334,15.464 Z M530.08,49 L530.336,16.936 L530.144,16.936 L518.368,49 L510.688,49 L499.232,16.936 L499.04,16.936 L499.296,49 L488.992,49 L488.992,3.688 L504.544,3.688 L514.848,32.744 L515.104,32.744 L524.96,3.688 L540.768,3.688 L540.768,49 L530.08,49 Z M581.498667,49 L577.978667,40.104 L560.442667,40.104 L557.114667,49 L545.210667,49 L564.218667,3.688 L574.842667,3.688 L593.658667,49 L581.498667,49 Z M569.338667,15.784 L563.578667,31.336 L574.970667,31.336 L569.338667,15.784 Z M622.357334,49 L612.565334,31.016 L608.853334,31.016 L608.853334,49 L598.101334,49 L598.101334,3.688 L615.381334,3.688 C617.557344,3.688 619.67999,3.91199776 621.749334,4.36 C623.818677,4.80800224 625.674659,5.565328 627.317334,6.632 C628.960008,7.698672 630.271995,9.10665792 631.253334,10.856 C632.234672,12.6053421 632.725334,14.7813203 632.725334,17.384 C632.725334,20.4560154 631.893342,23.0373229 630.229334,25.128 C628.565325,27.2186771 626.261348,28.7119955 623.317334,29.608 L635.157334,49 L622.357334,49 Z M621.909334,17.576 C621.909334,16.509328 621.685336,15.6453366 621.237334,14.984 C620.789331,14.3226634 620.213337,13.8106685 619.509334,13.448 C618.80533,13.0853315 618.016005,12.8400006 617.141334,12.712 C616.266663,12.5839994 615.424004,12.52 614.613334,12.52 L608.789334,12.52 L608.789334,23.08 L613.973334,23.08 C614.869338,23.08 615.786662,23.0053341 616.725334,22.856 C617.664005,22.7066659 618.51733,22.4400019 619.285334,22.056 C620.053337,21.6719981 620.682664,21.117337 621.173334,20.392 C621.664003,19.666663 621.909334,18.7280058 621.909334,17.576 Z M659.824,13.032 L659.824,49 L648.88,49 L648.88,13.032 L636.08,13.032 L636.08,3.688 L672.624,3.688 L672.624,13.032 L659.824,13.032 Z M678.282667,49 L678.282667,3.688 L708.746667,3.688 L708.746667,12.968 L688.842667,12.968 L688.842667,21.48 L707.658667,21.48 L707.658667,30.248 L688.842667,30.248 L688.842667,39.656 L709.898667,39.656 L709.898667,49 L678.282667,49 Z M742.053334,49 L732.261334,31.016 L728.549334,31.016 L728.549334,49 L717.797334,49 L717.797334,3.688 L735.077334,3.688 C737.253345,3.688 739.37599,3.91199776 741.445334,4.36 C743.514677,4.80800224 745.370659,5.565328 747.013334,6.632 C748.656009,7.698672 749.967995,9.10665792 750.949334,10.856 C751.930672,12.6053421 752.421334,14.7813203 752.421334,17.384 C752.421334,20.4560154 751.589342,23.0373229 749.925334,25.128 C748.261325,27.2186771 745.957348,28.7119955 743.013334,29.608 L754.853334,49 L742.053334,49 Z M741.605334,17.576 C741.605334,16.509328 741.381336,15.6453366 740.933334,14.984 C740.485331,14.3226634 739.909337,13.8106685 739.205334,13.448 C738.50133,13.0853315 737.712005,12.8400006 736.837334,12.712 C735.962663,12.5839994 735.120004,12.52 734.309334,12.52 L728.485334,12.52 L728.485334,23.08 L733.669334,23.08 C734.565338,23.08 735.482662,23.0053341 736.421334,22.856 C737.360005,22.7066659 738.21333,22.4400019 738.981334,22.056 C739.749338,21.6719981 740.378665,21.117337 740.869334,20.392 C741.360003,19.666663 741.605334,18.7280058 741.605334,17.576 Z M812.058667,15.464 C811.119996,14.2693274 809.893341,13.3200035 808.378667,12.616 C806.863993,11.9119965 805.402674,11.56 803.994667,11.56 C803.26933,11.56 802.533337,11.6239994 801.786667,11.752 C801.039997,11.8800006 800.368003,12.1253315 799.770667,12.488 C799.173331,12.8506685 798.672002,13.3199971 798.266667,13.896 C797.861332,14.4720029 797.658667,15.2079955 797.658667,16.104 C797.658667,16.8720038 797.818665,17.5119974 798.138667,18.024 C798.458669,18.5360026 798.927997,18.9839981 799.546667,19.368 C800.165337,19.7520019 800.901329,20.1039984 801.754667,20.424 C802.608005,20.7440016 803.567995,21.074665 804.634667,21.416 C806.170675,21.9280026 807.770659,22.4933302 809.434667,23.112 C811.098675,23.7306698 812.613327,24.5519949 813.978667,25.576 C815.344007,26.6000051 816.474663,27.8693258 817.370667,29.384 C818.266672,30.8986742 818.714667,32.7866554 818.714667,35.048 C818.714667,37.6506797 818.234672,39.9013238 817.274667,41.8 C816.314662,43.6986762 815.024008,45.2666605 813.402667,46.504 C811.781326,47.7413395 809.925344,48.6586637 807.834667,49.256 C805.74399,49.8533363 803.589345,50.152 801.370667,50.152 C798.127984,50.152 794.992016,49.5866723 791.962667,48.456 C788.933319,47.3253277 786.41601,45.7146771 784.410667,43.624 L791.578667,36.328 C792.688006,37.6933402 794.149325,38.8346621 795.962667,39.752 C797.776009,40.6693379 799.578658,41.128 801.370667,41.128 C802.181338,41.128 802.970663,41.0426675 803.738667,40.872 C804.506671,40.7013325 805.178664,40.4240019 805.754667,40.04 C806.33067,39.6559981 806.789332,39.1440032 807.130667,38.504 C807.472002,37.8639968 807.642667,37.0960045 807.642667,36.2 C807.642667,35.3466624 807.429336,34.6213363 807.002667,34.024 C806.575998,33.4266637 805.968004,32.8826691 805.178667,32.392 C804.38933,31.9013309 803.408006,31.4533354 802.234667,31.048 C801.061328,30.6426646 799.728008,30.2053357 798.234667,29.736 C796.783993,29.2666643 795.365341,28.7120032 793.978667,28.072 C792.591993,27.4319968 791.354672,26.6106717 790.266667,25.608 C789.178662,24.6053283 788.304004,23.3893405 787.642667,21.96 C786.98133,20.5306595 786.650667,18.7920102 786.650667,16.744 C786.650667,14.2266541 787.162662,12.072009 788.186667,10.28 C789.210672,8.48799104 790.554659,7.01600576 792.218667,5.864 C793.882675,4.71199424 795.75999,3.869336 797.850667,3.336 C799.941344,2.802664 802.053323,2.536 804.186667,2.536 C806.74668,2.536 809.359987,3.00532864 812.026667,3.944 C814.693347,4.88267136 817.029324,6.26932416 819.034667,8.104 L812.058667,15.464 Z M845.173334,13.032 L845.173334,49 L834.229334,49 L834.229334,13.032 L821.429334,13.032 L821.429334,3.688 L857.973334,3.688 L857.973334,13.032 L845.173334,13.032 Z M887.888,49 L878.096,31.016 L874.384,31.016 L874.384,49 L863.632,49 L863.632,3.688 L880.912,3.688 C883.088011,3.688 885.210657,3.91199776 887.28,4.36 C889.349344,4.80800224 891.205326,5.565328 892.848,6.632 C894.490675,7.698672 895.802662,9.10665792 896.784,10.856 C897.765339,12.6053421 898.256,14.7813203 898.256,17.384 C898.256,20.4560154 897.424009,23.0373229 895.76,25.128 C894.095992,27.2186771 891.792015,28.7119955 888.848,29.608 L900.688,49 L887.888,49 Z M887.44,17.576 C887.44,16.509328 887.216003,15.6453366 886.768,14.984 C886.319998,14.3226634 885.744004,13.8106685 885.04,13.448 C884.335997,13.0853315 883.546671,12.8400006 882.672,12.712 C881.797329,12.5839994 880.954671,12.52 880.144,12.52 L874.32,12.52 L874.32,23.08 L879.504,23.08 C880.400005,23.08 881.317329,23.0053341 882.256,22.856 C883.194672,22.7066659 884.047997,22.4400019 884.816,22.056 C885.584004,21.6719981 886.213331,21.117337 886.704,20.392 C887.19467,19.666663 887.44,18.7280058 887.44,17.576 Z M953.962667,26.152 C953.962667,29.7360179 953.344007,33.0106518 952.106667,35.976 C950.869328,38.9413482 949.152011,41.4799894 946.954667,43.592 C944.757323,45.7040106 942.144016,47.3359942 939.114667,48.488 C936.085319,49.6400058 932.800018,50.216 929.258667,50.216 C925.717316,50.216 922.442682,49.6400058 919.434667,48.488 C916.426652,47.3359942 913.824011,45.7040106 911.626667,43.592 C909.429323,41.4799894 907.712007,38.9413482 906.474667,35.976 C905.237328,33.0106518 904.618667,29.7360179 904.618667,26.152 C904.618667,22.5253152 905.237328,19.2506813 906.474667,16.328 C907.712007,13.4053187 909.429323,10.9200102 911.626667,8.872 C913.824011,6.82398976 916.426652,5.24533888 919.434667,4.136 C922.442682,3.02666112 925.717316,2.472 929.258667,2.472 C932.800018,2.472 936.085319,3.02666112 939.114667,4.136 C942.144016,5.24533888 944.757323,6.82398976 946.954667,8.872 C949.152011,10.9200102 950.869328,13.4053187 952.106667,16.328 C953.344007,19.2506813 953.962667,22.5253152 953.962667,26.152 Z M942.250667,26.152 C942.250667,24.1893235 941.93067,22.3546752 941.290667,20.648 C940.650664,18.9413248 939.765339,17.4800061 938.634667,16.264 C937.503995,15.0479939 936.138675,14.0880035 934.538667,13.384 C932.938659,12.6799965 931.178677,12.328 929.258667,12.328 C927.338658,12.328 925.589342,12.6799965 924.010667,13.384 C922.431993,14.0880035 921.066673,15.0479939 919.914667,16.264 C918.762661,17.4800061 917.877337,18.9413248 917.258667,20.648 C916.639997,22.3546752 916.330667,24.1893235 916.330667,26.152 C916.330667,28.2000102 916.650664,30.0879914 917.290667,31.816 C917.93067,33.5440086 918.815995,35.0266605 919.946667,36.264 C921.077339,37.5013395 922.431993,38.4719965 924.010667,39.176 C925.589342,39.8800035 927.338658,40.232 929.258667,40.232 C931.178677,40.232 932.927993,39.8800035 934.506667,39.176 C936.085342,38.4719965 937.450661,37.5013395 938.602667,36.264 C939.754673,35.0266605 940.650664,33.5440086 941.290667,31.816 C941.93067,30.0879914 942.250667,28.2000102 942.250667,26.152 Z M990.661334,49 L972.421334,19.368 L972.229334,19.368 L972.485334,49 L961.861334,49 L961.861334,3.688 L974.341334,3.688 L992.517334,33.256 L992.709334,33.256 L992.453334,3.688 L1003.07733,3.688 L1003.07733,49 L990.661334,49 Z M1053.344,46.248 C1051.12532,47.4000058 1048.53335,48.338663 1045.568,49.064 C1042.60265,49.789337 1039.37068,50.152 1035.872,50.152 C1032.24532,50.152 1028.90668,49.5760058 1025.856,48.424 C1022.80532,47.2719942 1020.18134,45.6506771 1017.984,43.56 C1015.78666,41.4693229 1014.06934,38.9626813 1012.832,36.04 C1011.59466,33.1173187 1010.976,29.8640179 1010.976,26.28 C1010.976,22.6533152 1011.60533,19.3680147 1012.864,16.424 C1014.12267,13.4799853 1015.86132,10.9733437 1018.08,8.904 C1020.29868,6.83465632 1022.90132,5.24533888 1025.888,4.136 C1028.87468,3.02666112 1032.09598,2.472 1035.552,2.472 C1039.13602,2.472 1042.46399,3.01599456 1045.536,4.104 C1048.60802,5.19200544 1051.10399,6.65332416 1053.024,8.488 L1046.112,16.36 C1045.04533,15.1226605 1043.63734,14.1093373 1041.888,13.32 C1040.13866,12.5306627 1038.15468,12.136 1035.936,12.136 C1034.01599,12.136 1032.24534,12.4879965 1030.624,13.192 C1029.00266,13.8960035 1027.59467,14.877327 1026.4,16.136 C1025.20533,17.394673 1024.27734,18.8879914 1023.616,20.616 C1022.95466,22.3440086 1022.624,24.2319898 1022.624,26.28 C1022.624,28.3706771 1022.92266,30.2906579 1023.52,32.04 C1024.11734,33.7893421 1025.00266,35.293327 1026.176,36.552 C1027.34934,37.810673 1028.79999,38.7919965 1030.528,39.496 C1032.25601,40.2000035 1034.22932,40.552 1036.448,40.552 C1037.72801,40.552 1038.94399,40.456001 1040.096,40.264 C1041.24801,40.071999 1042.31466,39.7626688 1043.296,39.336 L1043.296,31.08 L1034.656,31.08 L1034.656,22.248 L1053.344,22.248 L1053.344,46.248 Z M1062.97067,49 L1062.97067,3.688 L1093.43467,3.688 L1093.43467,12.968 L1073.53067,12.968 L1073.53067,21.48 L1092.34667,21.48 L1092.34667,30.248 L1073.53067,30.248 L1073.53067,39.656 L1094.58667,39.656 L1094.58667,49 L1062.97067,49 Z M1126.74133,49 L1116.94933,31.016 L1113.23733,31.016 L1113.23733,49 L1102.48533,49 L1102.48533,3.688 L1119.76533,3.688 C1121.94134,3.688 1124.06399,3.91199776 1126.13333,4.36 C1128.20268,4.80800224 1130.05866,5.565328 1131.70133,6.632 C1133.34401,7.698672 1134.656,9.10665792 1135.63733,10.856 C1136.61867,12.6053421 1137.10933,14.7813203 1137.10933,17.384 C1137.10933,20.4560154 1136.27734,23.0373229 1134.61333,25.128 C1132.94933,27.2186771 1130.64535,28.7119955 1127.70133,29.608 L1139.54133,49 L1126.74133,49 Z M1126.29333,17.576 C1126.29333,16.509328 1126.06934,15.6453366 1125.62133,14.984 C1125.17333,14.3226634 1124.59734,13.8106685 1123.89333,13.448 C1123.18933,13.0853315 1122.4,12.8400006 1121.52533,12.712 C1120.65066,12.5839994 1119.808,12.52 1118.99733,12.52 L1113.17333,12.52 L1113.17333,23.08 L1118.35733,23.08 C1119.25334,23.08 1120.17066,23.0053341 1121.10933,22.856 C1122.04801,22.7066659 1122.90133,22.4400019 1123.66933,22.056 C1124.43734,21.6719981 1125.06666,21.117337 1125.55733,20.392 C1126.048,19.666663 1126.29333,18.7280058 1126.29333,17.576 Z" id="Move-safer/smarter/s" fill="#FFFFFF"></path>
            <g id="Group" fill="#FF2211">
                <polygon id="Path" points="41.76 49 42.016 16.936 41.824 16.936 30.048 49 22.368 49 10.912 16.936 10.72 16.936 10.976 49 0.672 49 0.672 3.688 16.224 3.688 26.528 32.744 26.784 32.744 36.64 3.688 52.448 3.688 52.448 49"></polygon>
                <path d="M109.690667,26.152 C109.690667,29.7360179 109.072006,33.0106518 107.834667,35.976 C106.597327,38.9413482 104.880011,41.4799894 102.682667,43.592 C100.485322,45.7040106 97.8720152,47.3359942 94.8426667,48.488 C91.8133182,49.6400058 88.5280177,50.216 84.9866667,50.216 C81.4453156,50.216 78.1706817,49.6400058 75.1626667,48.488 C72.1546516,47.3359942 69.552011,45.7040106 67.3546667,43.592 C65.1573224,41.4799894 63.4400062,38.9413482 62.2026667,35.976 C60.9653272,33.0106518 60.3466667,29.7360179 60.3466667,26.152 C60.3466667,22.5253152 60.9653272,19.2506813 62.2026667,16.328 C63.4400062,13.4053187 65.1573224,10.9200102 67.3546667,8.872 C69.552011,6.82398976 72.1546516,5.24533888 75.1626667,4.136 C78.1706817,3.02666112 81.4453156,2.472 84.9866667,2.472 C88.5280177,2.472 91.8133182,3.02666112 94.8426667,4.136 C97.8720152,5.24533888 100.485322,6.82398976 102.682667,8.872 C104.880011,10.9200102 106.597327,13.4053187 107.834667,16.328 C109.072006,19.2506813 109.690667,22.5253152 109.690667,26.152 Z M97.9786667,26.152 C97.9786667,24.1893235 97.6586699,22.3546752 97.0186667,20.648 C96.3786635,18.9413248 95.493339,17.4800061 94.3626667,16.264 C93.2319944,15.0479939 91.8666747,14.0880035 90.2666667,13.384 C88.6666587,12.6799965 86.9066763,12.328 84.9866667,12.328 C83.0666571,12.328 81.3173412,12.6799965 79.7386667,13.384 C78.1599921,14.0880035 76.7946724,15.0479939 75.6426667,16.264 C74.4906609,17.4800061 73.6053364,18.9413248 72.9866667,20.648 C72.3679969,22.3546752 72.0586667,24.1893235 72.0586667,26.152 C72.0586667,28.2000102 72.3786635,30.0879914 73.0186667,31.816 C73.6586699,33.5440086 74.5439944,35.0266605 75.6746667,36.264 C76.805339,37.5013395 78.1599921,38.4719965 79.7386667,39.176 C81.3173412,39.8800035 83.0666571,40.232 84.9866667,40.232 C86.9066763,40.232 88.6559921,39.8800035 90.2346667,39.176 C91.8133412,38.4719965 93.1786609,37.5013395 94.3306667,36.264 C95.4826724,35.0266605 96.3786635,33.5440086 97.0186667,31.816 C97.6586699,30.0879914 97.9786667,28.2000102 97.9786667,26.152 Z" id="Combined-Shape"></path>
                <polygon id="Path" points="139.285333 49 128.341333 49 111.189333 3.688 123.477333 3.688 133.973333 35.816 134.229333 35.816 144.661333 3.688 156.757333 3.688"></polygon>
                <polygon id="Path" points="161.136 49 161.136 3.688 191.6 3.688 191.6 12.968 171.696 12.968 171.696 21.48 190.512 21.48 190.512 30.248 171.696 30.248 171.696 39.656 192.752 39.656 192.752 49"></polygon>
                <polygon id="Path" points="425.386667 52.328 418.154667 49.96 437.930667 0.232 445.162667 2.728"></polygon>
                <polygon id="Path" points="763.008 52.328 755.776 49.96 775.552 0.232 782.784 2.728"></polygon>
            </g>
        </g>
    </g>
</svg>