<?xml version="1.0" encoding="UTF-8"?>
<svg width="214px" height="214px" viewBox="0 0 214 214" version="1.1" xmlns="http://www.w3.org/2000/svg" xmlns:xlink="http://www.w3.org/1999/xlink">
    <!-- Generator: Sketch 43.2 (39069) - http://www.bohemiancoding.com/sketch -->
    <title>Twitter</title>
    <desc>Created with Sketch.</desc>
    <defs></defs>
    <g id="Elements" stroke="none" stroke-width="1" fill="none" fill-rule="evenodd">
        <g id="Twitter" transform="translate(0.000000, -1.000000)">
            <polygon id="Fill-1" fill="#666666" points="0 214.849429 213.814857 214.849429 213.814857 0.996857143 0 0.996857143"></polygon>
            <path d="M160.543429,79.9152571 C156.608571,81.6626857 152.365714,82.8444 147.928,83.3786857 C152.466286,80.6569714 155.948571,76.3512571 157.582857,71.2221143 C153.34,73.7426857 148.638286,75.5655429 143.628571,76.5461143 C139.630857,72.2781143 133.917143,69.6066857 127.593714,69.6066857 C115.468571,69.6066857 105.631429,79.4564 105.631429,91.5815429 C105.631429,93.3101143 105.813714,94.9758286 106.197143,96.5849714 C87.9371429,95.6672571 71.7514286,86.9301143 60.9085714,73.6232571 C59.0165714,76.8855429 57.9354286,80.6569714 57.9354286,84.6861143 C57.9354286,92.2981143 61.8137143,99.0301143 67.7097143,102.971257 C64.108,102.858114 60.72,101.864971 57.7531429,100.2244 L57.7531429,100.494686 C57.7531429,111.148971 65.3274286,120.030686 75.3845714,122.042114 C73.5365714,122.557543 71.6005714,122.815257 69.5891429,122.815257 C68.1748571,122.815257 66.792,122.689543 65.4594286,122.431829 C68.2502857,131.150114 76.3651429,137.511257 85.9822857,137.680971 C78.4582857,143.576971 68.9857143,147.090686 58.696,147.090686 C56.9234286,147.090686 55.1697143,146.990114 53.4537143,146.788971 C63.1777143,153.018114 74.7245714,156.657543 87.1325714,156.657543 C127.549714,156.657543 149.644,123.179829 149.644,94.1335429 C149.644,93.1781143 149.625143,92.2289714 149.581143,91.2924 C153.874286,88.1872571 157.608,84.3215429 160.543429,79.9152571" id="Fill-2" fill="#FEFEFE"></path>
        </g>
    </g>
</svg>