<?xml version="1.0" encoding="UTF-8"?>
<svg width="628px" height="111px" viewBox="0 0 628 111" version="1.1" xmlns="http://www.w3.org/2000/svg" xmlns:xlink="http://www.w3.org/1999/xlink">
    <!-- Generator: Sketch 45.1 (43504) - http://www.bohemiancoding.com/sketch -->
    <title>Activcore logo - white</title>
    <desc>Created with Sketch.</desc>
    <defs></defs>
    <g id="Elements" stroke="none" stroke-width="1" fill="none" fill-rule="evenodd">
        <g id="Activcore-logo---white" transform="translate(0.000000, -1.000000)" fill="#FFFFFF">
            <g id="Activcore-logotype-White" transform="translate(162.750000, 29.815385)">
                <polygon id="Fill-1" points="178.753669 53.8709231 187.891387 53.8709231 187.891387 2.06661538 178.753669 2.06661538"></polygon>
                <polygon id="Fill-2" points="433.618988 2.06683077 433.618988 53.8722154 464.97692 53.8722154 464.97692 45.8663692 442.756705 45.8663692 442.756705 31.1340615 463.59307 31.1340615 463.59307 23.1303692 442.756705 23.1303692 442.756705 10.0759077 464.97692 10.0759077 464.97692 2.06683077"></polygon>
                <path d="M400.074572,24.3439538 L390.647161,24.3439538 L390.647161,10.0725692 L400.074572,10.0725692 C403.338735,10.0725692 405.374125,10.7574923 406.877514,12.3545692 C408.109517,13.6662615 408.757827,15.3581077 408.757827,17.2459538 C408.757827,19.0831846 408.109517,20.7502615 406.879668,22.0619538 C405.371971,23.6622615 403.338735,24.3439538 400.074572,24.3439538 L400.074572,24.3439538 Z M409.091674,31.0176462 C410.979525,30.2864154 412.548606,29.2439538 413.890456,27.8321077 C416.399694,25.2496462 417.897698,21.2930308 417.897698,17.2459538 C417.897698,13.1999538 416.399694,9.24549231 413.893687,6.66303077 C410.868602,3.48287692 406.745052,2.06564615 400.527958,2.06564615 L381.509444,2.06564615 L381.509444,53.8721077 L390.647161,53.8721077 L390.647161,32.3498 L399.587801,32.3498 L410.618755,53.8721077 L420.14955,53.8721077 L408.543518,31.2319538 L409.091674,31.0176462 Z" id="Fill-3"></path>
                <polygon id="Fill-5" points="225.499044 39.0559077 210.718234 2.06683077 201.362978 2.06683077 222.308112 53.8722154 228.768592 53.8722154 249.713726 2.06683077 240.357393 2.06683077"></polygon>
                <polygon id="Fill-7" points="116.813621 10.0725692 136.616137 10.0725692 136.616137 53.8721077 145.753855 53.8721077 145.753855 10.0725692 165.282832 10.0725692 165.282832 2.06564615 116.813621 2.06564615"></polygon>
                <path d="M19.2507983,34.1614 L26.7720498,16.6646308 L34.2933013,34.1614 L19.2507983,34.1614 Z M23.5703486,2.06586154 L1.36951816,53.8723231 L10.8680059,53.8723231 L15.8520196,42.1672462 L37.7685417,42.1672462 L42.7525554,53.8723231 L52.2510431,53.8723231 L30.0469819,2.06586154 L23.5703486,2.06586154 Z" id="Fill-9"></path>
                <path d="M86.9924621,46.2904615 C76.5753564,46.2904615 68.4165647,38.0983077 68.4165647,27.6413846 C68.4165647,17.1823077 76.3750482,8.98907692 86.5401531,8.98907692 C91.2775508,8.98907692 95.8114095,10.8370769 99.3598808,14.2013846 L105.200051,8.02523077 C100.305422,3.48169231 93.7297114,0.983230769 86.6133841,0.983230769 C70.7750327,0.983230769 59.2788471,12.1961538 59.2788471,27.6413846 C59.2788471,42.8367692 71.0938028,54.2973846 86.7630768,54.2973846 C95.4797163,54.2973846 103.275584,50.8296923 108.240213,44.7666154 L102.009119,39.2043077 C98.2678778,43.7790769 92.9554016,46.2904615 86.9924621,46.2904615" id="Fill-11"></path>
                <path d="M284.624761,46.6186 C274.209809,46.6186 266.048864,38.4296769 266.048864,27.9695231 C266.048864,17.5104462 274.010578,9.31936923 284.172452,9.31936923 C288.910927,9.31936923 293.443709,11.1673692 296.993257,14.5295231 L302.834504,8.3566 C297.937721,3.80983077 291.362011,1.31136923 284.247837,1.31136923 C268.407332,1.31136923 256.911146,12.5242923 256.911146,27.9695231 C256.911146,43.1649077 268.729333,54.6276769 284.398607,54.6276769 C293.113092,54.6276769 300.910037,51.1599846 305.875743,45.0947538 L299.641418,39.5346 C297.314181,42.3701385 292.506783,46.6186 284.624761,46.6186" id="Fill-13"></path>
                <path d="M341.552472,46.6195692 C331.516598,46.6195692 323.656115,38.4274154 323.656115,27.9704923 C323.656115,17.5114154 331.516598,9.31818462 341.552472,9.31818462 C351.587269,9.31818462 359.448829,17.5114154 359.448829,27.9704923 C359.448829,38.4274154 351.587269,46.6195692 341.552472,46.6195692 M341.552472,1.31233846 C326.140583,1.31233846 314.517321,12.7718769 314.517321,27.9704923 C314.517321,43.1658769 326.140583,54.6264923 341.552472,54.6264923 C356.964361,54.6264923 368.587624,43.1658769 368.587624,27.9704923 C368.587624,12.7718769 356.964361,1.31233846 341.552472,1.31233846" id="Fill-15"></path>
            </g>
            <g id="Activcore-Mark-white">
                <path d="M59.7247369,61.5461538 L41.3527274,61.5461538 C28.7317874,61.5461538 16.9725395,68.3436923 10.6620695,79.2863077 L1.47821631,95.2118462 C-1.56621434,100.489846 0.24108018,107.242154 5.51450741,110.289846 C10.7879346,113.337538 17.5319402,111.528308 20.5763708,106.249231 L29.760224,90.3236923 C32.1441315,86.1893846 36.5859881,83.622 41.3527274,83.622 L59.7247369,83.622 C65.8135982,83.622 70.7503092,78.6789231 70.7503092,72.5835385 C70.7503092,66.4892308 65.8135982,61.5461538 59.7247369,61.5461538" id="Fill-17"></path>
                <path d="M122.786514,95.2115231 L71.6809583,6.59906154 C68.6365277,1.31998462 61.8957494,-0.492476923 56.6201706,2.55952308 C51.3467434,5.60721538 49.5394489,12.3562923 52.5849553,17.6364462 L103.690511,106.248908 C106.734942,111.525831 113.47572,113.340446 118.751299,110.288446 C124.024726,107.240754 125.83202,100.4906 122.786514,95.2115231" id="Fill-20"></path>
            </g>
        </g>
    </g>
</svg>