<?xml version="1.0" encoding="UTF-8"?>
<svg width="593px" height="105px" viewBox="0 0 593 105" version="1.1" xmlns="http://www.w3.org/2000/svg" xmlns:xlink="http://www.w3.org/1999/xlink">
    <!-- Generator: Sketch 45.1 (43504) - http://www.bohemiancoding.com/sketch -->
    <title>ACTIVCORE with tagline</title>
    <desc>Created with Sketch.</desc>
    <defs></defs>
    <g id="Elements" stroke="none" stroke-width="1" fill="none" fill-rule="evenodd">
        <g id="ACTIVCORE-with-tagline" transform="translate(0.000000, -49.000000)">
            <polygon id="Fill-1" fill="#161112" points="323 105.927 331.63 105.927 331.63 57 323 57"></polygon>
            <polygon id="Fill-2" fill="#161112" points="563 57 563 105.927 592.614 105.927 592.614 98.366 571.63 98.366 571.63 84.452 591.307 84.452 591.307 76.894 571.63 76.894 571.63 64.564 592.614 64.564 592.614 57"></polygon>
            <path d="M531.533,78.04 C534.616,78.04 536.535,77.396 537.96,75.884 C539.121,74.646 539.732,73.072 539.732,71.337 C539.732,69.554 539.121,67.955 537.957,66.717 C536.538,65.208 534.616,64.561 531.533,64.561 L522.63,64.561 L522.63,78.04 L531.533,78.04 Z M540.048,84.343 L539.531,84.544 L550.49,105.927 L541.49,105.927 L531.073,85.601 L522.63,85.601 L522.63,105.927 L514,105.927 L514,57 L531.961,57 C537.833,57 541.726,58.338 544.583,61.342 C546.95,63.781 548.365,67.515 548.365,71.337 C548.365,75.158 546.95,78.895 544.581,81.334 C543.313,82.667 541.831,83.652 540.048,84.343 Z" id="Fill-3" fill="#161112"></path>
            <polygon id="Fill-5" fill="#161112" points="366.793 91.933 352.835 57 344 57 363.78 105.926 369.881 105.926 389.661 57 380.825 57"></polygon>
            <polygon id="Fill-7" fill="#161112" points="264 64.561 282.701 64.561 282.701 105.927 291.331 105.927 291.331 64.561 309.773 64.561 309.773 57 264 57"></polygon>
            <path d="M171.886,87.311 L178.989,70.787 L186.092,87.311 L171.886,87.311 Z M175.966,57 L155,105.926 L163.97,105.926 L168.676,94.872 L189.374,94.872 L194.08,105.926 L203.051,105.926 L182.082,57 L175.966,57 Z" id="Fill-9" fill="#161112"></path>
            <path d="M64.886,30.38472 L71.989,13.86072 L79.092,30.38472 L64.886,30.38472 Z M68.966,0.0737200363 L48,48.99972 L56.97,48.99972 L61.676,37.94572 L82.374,37.94572 L87.08,48.99972 L96.051,48.99972 L75.082,0.0737200363 L68.966,0.0737200363 Z" id="Fill-9-Copy" fill-opacity="0.1" fill="#9B9B9B" opacity="0"></path>
            <path d="M99.886,184.311 L106.989,167.787 L114.092,184.311 L99.886,184.311 Z M103.966,154 L83,202.926 L91.97,202.926 L96.676,191.872 L117.374,191.872 L122.08,202.926 L131.051,202.926 L110.082,154 L103.966,154 Z" id="Fill-9-Copy-2" fill-opacity="0.1" fill="#9B9B9B" opacity="0"></path>
            <path d="M236.172,98.79 C226.334,98.79 218.629,91.052 218.629,81.177 C218.629,71.298 226.145,63.561 235.744,63.561 C240.22,63.561 244.501,65.306 247.852,68.484 L253.367,62.651 C248.745,58.359 242.534,56 235.814,56 C220.857,56 210,66.589 210,81.177 C210,95.528 221.158,106.351 235.956,106.351 C244.188,106.351 251.549,103.076 256.238,97.35 L250.353,92.097 C246.82,96.418 241.803,98.79 236.172,98.79" id="Fill-11" fill="#161112"></path>
            <path d="M422.172,98.79 C412.337,98.79 404.629,91.055 404.629,81.177 C404.629,71.298 412.148,63.563 421.744,63.563 C426.22,63.563 430.501,65.309 433.852,68.484 L439.369,62.653 C434.745,58.359 428.534,56 421.817,56 C406.857,56 396,66.589 396,81.177 C396,95.528 407.16,106.354 421.958,106.354 C430.188,106.354 437.552,103.079 442.241,97.35 L436.353,92.099 C434.156,94.777 429.616,98.79 422.172,98.79" id="Fill-13" fill="#161112"></path>
            <path d="M476.531,98.79 C467.054,98.79 459.63,91.052 459.63,81.177 C459.63,71.298 467.054,63.561 476.531,63.561 C486.008,63.561 493.432,71.298 493.432,81.177 C493.432,91.052 486.008,98.79 476.531,98.79 M476.531,56 C461.977,56 451,66.823 451,81.177 C451,95.528 461.977,106.351 476.531,106.351 C491.085,106.351 502.062,95.528 502.062,81.177 C502.062,66.823 491.085,56 476.531,56" id="Fill-15" fill="#161112"></path>
            <path d="M56.463,106.1094 L39.095,106.1094 C27.163,106.1094 16.046,112.5294 10.08,122.8634 L1.398,137.9044 C-1.48,142.8894 0.228,149.2654 5.213,152.1434 C10.199,155.0224 16.574,153.3134 19.452,148.3284 L28.135,133.2874 C30.389,129.3834 34.588,126.9584 39.095,126.9584 L56.463,126.9584 C62.219,126.9584 66.887,122.2904 66.887,116.5334 C66.887,110.7774 62.219,106.1094 56.463,106.1094" id="Fill-17" fill="#FF2211"></path>
            <path d="M116.0807,137.904 L67.7657,54.214 C64.8877,49.23 58.5157,47.517 53.5277,50.4 C48.5427,53.278 46.8337,59.653 49.7127,64.639 L98.0277,148.328 C100.9057,153.313 107.2777,155.025 112.2657,152.143 C117.2517,149.265 118.9597,142.89 116.0807,137.904" id="Fill-20" fill="#FF2211"></path>
            <g id="Tagline-in-grey" transform="translate(155.000000, 126.000000)" fill="#6E6E73">
                <path d="M4.5478,7.5577 C6.1058,7.5577 8.1168,7.4707 8.1168,5.3917 C8.1168,3.5097 6.3218,3.2507 4.8498,3.2507 L2.9028,3.2507 L2.9028,7.5577 L4.5478,7.5577 Z M0.1768,0.9137 L5.3258,0.9137 C8.2898,0.9137 10.9738,1.9537 10.9738,5.3487 C10.9738,9.2007 8.0958,9.8917 4.8498,9.8917 L2.9028,9.8917 L2.9028,16.2337 L0.1768,16.2337 L0.1768,0.9137 Z" id="Fill-23"></path>
                <polygon id="Fill-25" points="14.599 0.914 17.325 0.914 17.325 7.016 24.487 7.016 24.487 0.914 27.213 0.914 27.213 16.234 24.487 16.234 24.487 9.481 17.325 9.481 17.325 16.234 14.599 16.234"></polygon>
                <polygon id="Fill-27" points="36.0102 9.677 30.2552 0.914 33.6742 0.914 37.4382 7.016 41.2472 0.914 44.4932 0.914 38.7372 9.677 38.7372 16.234 36.0102 16.234"></polygon>
                <path d="M54.6082,4.2032 C54.0242,3.3812 52.9852,2.9902 51.9252,2.9902 C50.6702,2.9902 49.4162,3.5532 49.4162,4.9592 C49.4162,8.0342 56.6852,6.2792 56.6852,11.7312 C56.6852,15.0202 54.0882,16.6232 51.0812,16.6232 C49.1782,16.6232 47.3172,16.0382 46.0612,14.5442 L48.1172,12.5552 C48.7872,13.5732 49.9342,14.1552 51.1462,14.1552 C52.4022,14.1552 53.8292,13.4642 53.8292,12.0572 C53.8292,8.7032 46.5592,10.6292 46.5592,5.1552 C46.5592,1.9972 49.3722,0.5252 52.2062,0.5252 C53.8082,0.5252 55.4092,0.9792 56.5982,2.1032 L54.6082,4.2032 Z" id="Fill-29"></path>
                <polygon id="Fill-31" points="61.09 16.234 63.816 16.234 63.816 0.914 61.09 0.914"></polygon>
                <path d="M79.314,4.5051 C78.189,3.3161 77.15,2.9901 76.09,2.9901 C72.931,2.9901 70.833,5.4141 70.833,8.4661 C70.833,11.7311 72.931,14.1551 76.09,14.1551 C77.324,14.1551 78.513,13.5921 79.53,12.2941 L81.78,13.8971 C80.395,15.8011 78.318,16.6231 76.068,16.6231 C71.352,16.6231 67.976,13.4201 67.976,8.6381 C67.976,3.7271 71.352,0.5251 76.068,0.5251 C78.145,0.5251 79.919,1.1941 81.435,2.9491 L79.314,4.5051 Z" id="Fill-33"></path>
                <path d="M93.672,10.3898 L91.313,4.1598 L88.912,10.3898 L93.672,10.3898 Z M90.21,0.9138 L92.569,0.9138 L99.168,16.2338 L96.053,16.2338 L94.624,12.7268 L87.982,12.7268 L86.597,16.2338 L83.546,16.2338 L90.21,0.9138 Z" id="Fill-34"></path>
                <polygon id="Fill-35" points="102.5139 0.914 105.2399 0.914 105.2399 13.766 111.7529 13.766 111.7529 16.234 102.5139 16.234"></polygon>
                <polygon id="Fill-36" points="124.3855 3.3815 119.6895 3.3815 119.6895 0.9135 131.8075 0.9135 131.8075 3.3815 127.1115 3.3815 127.1115 16.2335 124.3855 16.2335"></polygon>
                <polygon id="Fill-37" points="135.3019 0.914 138.0279 0.914 138.0279 7.016 145.1899 7.016 145.1899 0.914 147.9159 0.914 147.9159 16.234 145.1899 16.234 145.1899 9.481 138.0279 9.481 138.0279 16.234 135.3019 16.234"></polygon>
                <polygon id="Fill-38" points="152.5397 0.914 162.6877 0.914 162.6877 3.382 155.2657 3.382 155.2657 7.144 162.2967 7.144 162.2967 9.612 155.2657 9.612 155.2657 13.766 163.0767 13.766 163.0767 16.234 152.5397 16.234"></polygon>
                <path d="M172.2409,7.4053 C173.7769,7.4053 175.5719,7.2743 175.5719,5.2833 C175.5719,3.4663 173.8839,3.2513 172.4789,3.2513 L170.1199,3.2513 L170.1199,7.4053 L172.2409,7.4053 Z M167.3939,0.9143 L172.7169,0.9143 C175.6589,0.9143 178.4289,1.8663 178.4289,5.3053 C178.4289,7.5143 177.1519,9.1353 174.8799,9.4593 L178.9489,16.2333 L175.6589,16.2333 L172.1099,9.7423 L170.1199,9.7423 L170.1199,16.2333 L167.3939,16.2333 L167.3939,0.9143 Z" id="Fill-39"></path>
                <path d="M191.0756,10.3898 L188.7166,4.1598 L186.3156,10.3898 L191.0756,10.3898 Z M187.6136,0.9138 L189.9726,0.9138 L196.5716,16.2338 L193.4566,16.2338 L192.0276,12.7268 L185.3856,12.7268 L184.0006,16.2338 L180.9496,16.2338 L187.6136,0.9138 Z" id="Fill-40"></path>
                <path d="M203.8557,7.5577 C205.4137,7.5577 207.4247,7.4707 207.4247,5.3917 C207.4247,3.5097 205.6297,3.2507 204.1577,3.2507 L202.2107,3.2507 L202.2107,7.5577 L203.8557,7.5577 Z M199.4847,0.9137 L204.6337,0.9137 C207.5977,0.9137 210.2817,1.9537 210.2817,5.3487 C210.2817,9.2007 207.4037,9.8917 204.1577,9.8917 L202.2107,9.8917 L202.2107,16.2337 L199.4847,16.2337 L199.4847,0.9137 Z" id="Fill-41"></path>
                <polygon id="Fill-42" points="218.0817 9.677 212.3267 0.914 215.7447 0.914 219.5097 7.016 223.3187 0.914 226.5647 0.914 220.8087 9.677 220.8087 16.234 218.0817 16.234"></polygon>
                <path d="M237.8761,4.3963 C237.8761,5.1993 238.6551,5.9983 239.3261,6.6273 C240.2131,6.1513 241.4031,5.4143 241.4031,4.2903 C241.4031,3.4663 240.6461,2.8623 239.7161,2.8623 C238.7211,2.8623 237.8761,3.4873 237.8761,4.3963 L237.8761,4.3963 Z M238.6771,9.3533 C237.6601,9.9573 236.5781,10.6513 236.5781,11.9703 C236.5781,13.3113 237.7031,14.2853 239.0021,14.2853 C240.1911,14.2853 241.0361,13.5293 241.8141,12.7703 L238.6771,9.3533 Z M245.1031,12.6203 L248.4141,16.2333 L245.0601,16.2333 L243.4371,14.4813 C242.2041,15.9293 240.8631,16.6223 238.9151,16.6223 C236.2111,16.6223 233.7221,15.0423 233.7221,12.1233 C233.7221,10.0663 235.1931,8.5293 237.0331,7.8163 C236.0591,6.7333 235.2811,5.8033 235.2811,4.2903 C235.2811,1.7793 237.3581,0.5253 239.6731,0.5253 C241.9661,0.5253 244.0001,1.6483 244.0001,4.1593 C244.0001,6.0423 242.4641,7.3403 240.9491,8.1183 L243.4151,10.7813 L245.1251,8.1833 L248.1761,8.1833 L245.1031,12.6203 Z" id="Fill-43"></path>
                <path d="M263.1682,7.5577 C264.7262,7.5577 266.7372,7.4707 266.7372,5.3917 C266.7372,3.5097 264.9422,3.2507 263.4702,3.2507 L261.5232,3.2507 L261.5232,7.5577 L263.1682,7.5577 Z M258.7972,0.9137 L263.9462,0.9137 C266.9102,0.9137 269.5942,1.9537 269.5942,5.3487 C269.5942,9.2007 266.7162,9.8917 263.4702,9.8917 L261.5232,9.8917 L261.5232,16.2337 L258.7972,16.2337 L258.7972,0.9137 Z" id="Fill-44"></path>
                <polygon id="Fill-45" points="273.652 0.914 283.8 0.914 283.8 3.382 276.378 3.382 276.378 7.144 283.409 7.144 283.409 9.612 276.378 9.612 276.378 13.766 284.189 13.766 284.189 16.234 273.652 16.234"></polygon>
                <path d="M293.7859,7.4053 C295.3219,7.4053 297.1169,7.2743 297.1169,5.2833 C297.1169,3.4663 295.4289,3.2513 294.0239,3.2513 L291.6649,3.2513 L291.6649,7.4053 L293.7859,7.4053 Z M288.9389,0.9143 L294.2619,0.9143 C297.2039,0.9143 299.9739,1.8663 299.9739,5.3053 C299.9739,7.5143 298.6969,9.1353 296.4249,9.4593 L300.4939,16.2333 L297.2039,16.2333 L293.6549,9.7423 L291.6649,9.7423 L291.6649,16.2333 L288.9389,16.2333 L288.9389,0.9143 Z" id="Fill-46"></path>
                <polygon id="Fill-47" points="305.0723 0.914 314.9603 0.914 314.9603 3.382 307.7983 3.382 307.7983 7.405 314.5493 7.405 314.5493 9.873 307.7983 9.873 307.7983 16.234 305.0723 16.234"></polygon>
                <path d="M326.4181,14.1551 C329.5981,14.1551 331.6961,11.7311 331.6961,8.4661 C331.6961,5.4141 329.5981,2.9901 326.4181,2.9901 C323.2571,2.9901 321.1591,5.4141 321.1591,8.4661 C321.1591,11.7311 323.2571,14.1551 326.4181,14.1551 M326.3961,0.5251 C331.1761,0.4381 334.5531,3.6401 334.5531,8.5511 C334.5531,13.3331 331.1761,16.5361 326.3961,16.6231 C321.6791,16.6231 318.3021,13.4201 318.3021,8.6381 C318.3021,3.7271 321.6791,0.5251 326.3961,0.5251" id="Fill-48"></path>
                <path d="M343.6341,7.4053 C345.1681,7.4053 346.9671,7.2743 346.9671,5.2833 C346.9671,3.4663 345.2771,3.2513 343.8711,3.2513 L341.5121,3.2513 L341.5121,7.4053 L343.6341,7.4053 Z M338.7861,0.9143 L344.1101,0.9143 C347.0511,0.9143 349.8211,1.8663 349.8211,5.3053 C349.8211,7.5143 348.5451,9.1353 346.2731,9.4593 L350.3401,16.2333 L347.0511,16.2333 L343.5031,9.7423 L341.5121,9.7423 L341.5121,16.2333 L338.7861,16.2333 L338.7861,0.9143 Z" id="Fill-49"></path>
                <polygon id="Fill-50" points="354.9845 0.914 359.1385 0.914 363.2275 11.647 367.3605 0.914 371.4715 0.914 371.4715 16.234 368.8755 16.234 368.8755 3.509 368.8325 3.509 364.1805 16.234 362.2755 16.234 357.6235 3.509 357.5825 3.509 357.5825 16.234 354.9845 16.234"></polygon>
                <path d="M384.5792,10.3898 L382.2202,4.1598 L379.8182,10.3898 L384.5792,10.3898 Z M381.1182,0.9138 L383.4742,0.9138 L390.0752,16.2338 L386.9602,16.2338 L385.5312,12.7268 L378.8882,12.7268 L377.5032,16.2338 L374.4532,16.2338 L381.1182,0.9138 Z" id="Fill-51"></path>
                <polygon id="Fill-52" points="392.9858 0.914 396.5988 0.914 404.0208 12.294 404.0638 12.338 404.0208 12.338 404.0638 12.294 404.0638 0.914 406.7898 0.914 406.7898 16.234 403.3298 16.234 395.7558 4.483 395.7118 4.483 395.7118 16.234 392.9858 16.234"></polygon>
                <path d="M421.4977,4.5051 C420.3717,3.3161 419.3317,2.9901 418.2707,2.9901 C415.1127,2.9901 413.0147,5.4141 413.0147,8.4661 C413.0147,11.7311 415.1127,14.1551 418.2707,14.1551 C419.5067,14.1551 420.6947,13.5921 421.7127,12.2941 L423.9627,13.8971 C422.5777,15.8011 420.5017,16.6231 418.2517,16.6231 C413.5347,16.6231 410.1587,13.4201 410.1587,8.6381 C410.1587,3.7271 413.5347,0.5251 418.2517,0.5251 C420.3277,0.5251 422.1017,1.1941 423.6167,2.9491 L421.4977,4.5051 Z" id="Fill-53"></path>
                <polygon id="Fill-54" points="427.4368 0.914 437.5848 0.914 437.5848 3.382 430.1628 3.382 430.1628 7.144 437.1958 7.144 437.1958 9.612 430.1628 9.612 430.1628 13.766 437.9738 13.766 437.9738 16.234 427.4368 16.234"></polygon>
            </g>
        </g>
    </g>
</svg>